<?xml version="1.0" standalone="no"?>
<!DOCTYPE svg PUBLIC "-//W3C//DTD SVG 20010904//EN"
 "http://www.w3.org/TR/2001/REC-SVG-20010904/DTD/svg10.dtd">
<svg version="1.0" xmlns="http://www.w3.org/2000/svg"
 width="1104.000000pt" height="1104.000000pt" viewBox="0 0 1104.000000 1104.000000"
 preserveAspectRatio="xMidYMid meet">
<metadata>
Created by potrace 1.14, written by Peter Selinger 2001-2017
</metadata>
<g transform="translate(0.000000,1104.000000) scale(0.100000,-0.100000)"
fill="#000000" stroke="none">
<path d="M5289 10786 c-2 -2 -63 -6 -135 -10 -627 -29 -1354 -227 -1973 -536
-531 -266 -968 -580 -1382 -993 -914 -912 -1449 -2089 -1540 -3382 -15 -212
-6 -684 16 -885 119 -1088 547 -2079 1253 -2897 932 -1080 2220 -1724 3647
-1824 212 -15 684 -6 885 16 882 96 1684 388 2405 876 876 592 1571 1457 1958
2439 187 473 297 941 349 1475 16 173 16 742 -1 910 -61 612 -198 1142 -432
1672 -203 459 -485 904 -825 1303 -126 148 -416 438 -564 564 -889 758 -1943
1188 -3105 1266 -143 9 -547 14 -556 6z m-1029 -3532 c121 -34 236 -120 305
-229 81 -127 611 -1055 628 -1100 25 -62 34 -229 18 -305 -19 -88 -67 -176
-138 -251 -214 -227 -581 -221 -787 12 -69 79 -668 1119 -691 1201 -40 142
-28 269 36 397 79 159 233 268 414 294 47 7 155 -3 215 -19z m2745 16 c157
-22 323 -141 392 -280 50 -99 67 -179 60 -285 -7 -114 -25 -163 -130 -345
-1164 -2021 -1364 -2365 -1413 -2419 -278 -310 -790 -195 -914 204 -41 133
-23 298 44 420 19 33 346 602 729 1265 734 1273 745 1291 857 1362 57 37 140
67 210 77 77 12 86 12 165 1z m-3582 -1435 c94 -24 176 -72 248 -144 143 -144
191 -344 129 -542 -20 -68 -598 -1079 -670 -1175 -46 -61 -153 -136 -235 -165
-130 -47 -313 -33 -434 31 -233 125 -345 413 -255 660 9 25 157 288 327 585
287 497 317 546 382 611 105 106 216 152 370 153 45 1 107 -6 138 -14z m4442
-10 c130 -28 255 -108 324 -209 74 -107 632 -1090 650 -1144 66 -194 15 -399
-133 -548 -103 -102 -245 -164 -381 -164 -133 0 -279 62 -375 159 -59 59 -100
124 -378 608 -172 297 -322 567 -333 600 -65 188 -13 409 132 554 130 131 309
183 494 144z"/>
</g>
</svg>
